<svg width="105" height="32" viewBox="0 0 105 32" fill="none" xmlns="http://www.w3.org/2000/svg">
<path d="M50.5916 12.0862C49.5287 11.1667 48.2673 10.7 46.842 10.7C45.2452 10.7 43.8581 11.2785 42.7178 12.4178C41.5776 13.5581 41 14.9601 41 16.5839C41 18.2076 41.5673 19.5892 42.6862 20.7285C43.805 21.8687 45.2033 22.4473 46.8429 22.4473C47.9245 22.4473 48.9809 22.1696 49.9824 21.6228C50.9391 21.1002 51.6583 20.4024 52.1203 19.5463C52.1539 19.4839 52.1567 19.4103 52.1287 19.3441C52.0999 19.278 52.044 19.2286 51.9741 19.2109L50.0345 18.6976C49.9507 18.6753 49.8594 18.7041 49.8026 18.7703C49.0629 19.6292 48.067 20.0652 46.8438 20.0652C46.0324 20.0652 45.317 19.8258 44.717 19.3535C44.1544 18.911 43.792 18.3166 43.6392 17.5853H52.3793C52.4883 17.5853 52.5815 17.5071 52.5973 17.4036C52.6467 17.0767 52.6225 15.9532 52.5573 15.5535C52.3151 14.171 51.6527 13.0047 50.5916 12.0862ZM49.9581 15.4986H43.6429C43.8087 14.8455 44.1665 14.2819 44.7077 13.8226C45.2862 13.3317 45.997 13.082 46.8206 13.082C47.6441 13.082 48.3502 13.3308 48.9222 13.8217C49.4569 14.281 49.8054 14.8455 49.9581 15.4986ZM69.7944 11.9436C70.6422 12.7699 71.0716 13.9065 71.0716 15.3216V22.0634C71.0716 22.1827 70.9747 22.2796 70.8555 22.2796H68.6318C68.5125 22.2796 68.4157 22.1827 68.4157 22.0634V15.9112C68.4157 15.0439 68.2256 14.3564 67.8502 13.8673C67.4776 13.382 66.9642 13.1454 66.2814 13.1454C65.5222 13.1454 64.9259 13.3997 64.5095 13.9027C64.0856 14.4142 63.8434 15.0719 63.7894 15.8563V22.0634C63.7894 22.1827 63.6925 22.2796 63.5742 22.2796H61.3496C61.2303 22.2796 61.1334 22.1827 61.1334 22.0634V15.9112C61.1334 15.0449 60.9434 14.3574 60.5689 13.8673C60.1963 13.382 59.6895 13.1454 59.0206 13.1454C58.1831 13.1454 57.5711 13.4258 57.1481 14.0024C56.7233 14.5819 56.5081 15.3169 56.5081 16.1842V22.0634C56.5081 22.1827 56.4112 22.2796 56.292 22.2796H54.0683C53.9491 22.2796 53.8522 22.1827 53.8522 22.0634V11.1052C53.8522 10.9859 53.9491 10.8891 54.0683 10.8891H56.292C56.4112 10.8891 56.5081 10.9859 56.5081 11.1052V12.1001C57.2972 11.1713 58.2968 10.7 59.4845 10.7C60.2317 10.7 60.9341 10.8853 61.5741 11.2524C62.161 11.5887 62.6417 12.0731 63.0069 12.6945C63.4102 12.0983 63.9366 11.6204 64.5738 11.2729C65.2688 10.8928 66.0066 10.7009 66.7668 10.7009C67.9294 10.7009 68.9485 11.1192 69.7953 11.9446L69.7944 11.9436ZM81.8808 12.0862C80.8179 11.1667 79.5565 10.7 78.1312 10.7C76.5344 10.7 75.1473 11.2785 74.007 12.4178C72.8668 13.5581 72.2892 14.9601 72.2892 16.5839C72.2892 18.2076 72.8565 19.5892 73.9754 20.7285C75.0942 21.8687 76.4925 22.4473 78.1321 22.4473C79.2137 22.4473 80.2701 22.1696 81.2716 21.6228C82.2479 21.0899 82.9764 20.3745 83.4366 19.496C83.4626 19.4448 83.4654 19.3861 83.4422 19.333C83.4189 19.2799 83.3732 19.2407 83.3183 19.2258L81.2976 18.6911C81.2287 18.6734 81.1551 18.6967 81.1085 18.7507C80.367 19.6227 79.3655 20.0652 78.1321 20.0652C77.3207 20.0652 76.6052 19.8258 76.0053 19.3535C75.4426 18.911 75.0802 18.3166 74.9275 17.5853H83.6937C83.7896 17.5853 83.8698 17.5164 83.8791 17.4232C83.9182 17.017 83.9229 16.0324 83.8465 15.5526C83.6043 14.1701 82.9428 13.0038 81.8817 12.0852L81.8808 12.0862ZM75.9978 13.8226C76.5764 13.3317 77.2872 13.082 78.1107 13.082C78.9342 13.082 79.6404 13.3308 80.2123 13.8217C80.7471 14.281 81.0955 14.8446 81.2483 15.4976H74.933C75.0989 14.8446 75.4566 14.2819 75.9978 13.8226ZM92.1394 11.0381V13.4425C92.1394 13.5059 92.1106 13.5646 92.0593 13.6018C92.009 13.64 91.942 13.6512 91.8805 13.6335C91.4967 13.5189 91.1268 13.4612 90.7803 13.4612C90.1757 13.4612 89.5245 13.6885 88.8454 14.1366C88.1821 14.5744 87.8458 15.37 87.8458 16.5009V22.0784C87.8458 22.1892 87.7554 22.2796 87.6445 22.2796H85.391C85.2802 22.2796 85.1898 22.1892 85.1898 22.0784V11.0903C85.1898 10.9794 85.2802 10.8891 85.391 10.8891H87.6445C87.7554 10.8891 87.8458 10.9794 87.8458 11.0903V12.3917C88.1811 11.87 88.6078 11.4797 89.1174 11.2272C89.7415 10.9189 90.3927 10.7624 91.0532 10.7624C91.3439 10.7624 91.6504 10.7875 91.9671 10.836C92.0658 10.8509 92.1394 10.9384 92.1394 11.0381ZM104.369 11.1834L98.1957 26.5658C98.1631 26.6469 98.0848 26.7 97.9973 26.7H95.6776C95.6068 26.7 95.5407 26.6646 95.5006 26.6059C95.4606 26.5472 95.4522 26.4726 95.4783 26.4065L97.197 22.0998L92.6201 11.1862C92.5922 11.1201 92.5996 11.0446 92.6397 10.985C92.6788 10.9254 92.7459 10.89 92.8176 10.89H95.1969C95.2854 10.89 95.3627 10.9431 95.3953 11.0251L98.5637 18.9352L101.589 11.0279C101.621 10.944 101.7 10.8909 101.789 10.8909H104.17C104.242 10.8909 104.307 10.9263 104.347 10.985C104.386 11.0437 104.394 11.1182 104.367 11.1844L104.369 11.1834Z" fill="#2F2D42"/>
<path d="M26.1403 31.4811C19.3794 32.1718 12.6197 32.1718 5.85998 31.4811C3.26664 31.1948 0.805376 28.7335 0.519046 26.1402C-0.17282 19.3804 -0.17282 12.6195 0.517877 5.85982C0.804207 3.26532 3.26664 0.805217 5.85998 0.517718C12.6197 -0.17298 19.3806 -0.17298 26.1403 0.517718C28.7348 0.804048 31.1937 3.26532 31.4812 5.85865C32.1719 12.6195 32.1719 19.3793 31.4812 26.1402C31.1949 28.7335 28.7336 31.1948 26.1403 31.4811Z" fill="#6A61EA"/>
<path d="M22.8117 11.7724L16.2968 8.01099C12.9965 6.1047 8.86963 8.48722 8.86963 12.2984V22.3643C8.86963 22.6965 9.22957 22.9042 9.51752 22.7381L13.2997 20.5521C13.3924 20.4981 13.4492 20.3998 13.4492 20.2932V12.3067C13.4492 12.016 13.7634 11.8347 14.014 11.98L20.5151 15.6997C20.7656 15.8451 20.767 16.2144 20.5151 16.3597L13.6042 20.3804C13.5115 20.4344 13.4547 20.5327 13.4547 20.6393V25.0029C13.4547 25.3352 13.8146 25.5428 14.1026 25.3767L22.8117 20.3486C26.1121 18.4423 26.1121 13.6787 22.8117 11.7737V11.7724Z" fill="white"/>
</svg>
